<?xml version="1.0" standalone="no"?>
<!DOCTYPE svg PUBLIC "-//W3C//DTD SVG 20010904//EN"
 "http://www.w3.org/TR/2001/REC-SVG-20010904/DTD/svg10.dtd">
<svg version="1.0" xmlns="http://www.w3.org/2000/svg"
 width="600.000000pt" height="600.000000pt" viewBox="0 0 260.000000 260.000000"
 preserveAspectRatio="xMidYMid meet">

<g transform="translate(0.000000,260.000000) scale(0.100000,-0.100000)"
fill="#000000" stroke="none">
<path d="M1805 2219 c-4 -6 -5 -12 -2 -15 2 -3 7 2 10 11 7 17 1 20 -8 4z"/>
<path d="M1825 2210 c-4 -6 -4 -34 0 -63 8 -78 -27 -252 -61 -298 -5 -8 -16
-27 -24 -42 -12 -25 -12 -30 0 -37 8 -6 10 -10 4 -10 -10 0 -34 -44 -37 -67 0
-4 -17 -23 -36 -42 -20 -18 -34 -39 -33 -45 2 -6 0 -8 -3 -4 -4 4 -24 -1 -44
-11 -54 -27 -131 -43 -166 -33 -36 10 -46 9 -64 -2 -10 -7 -12 -6 -6 4 5 9 4
11 -3 6 -7 -4 -12 -15 -12 -24 0 -13 -2 -13 -16 4 -14 18 -15 15 -11 -37 7
-73 55 -193 113 -280 50 -74 161 -190 221 -232 l38 -26 245 80 c135 44 252 82
260 85 8 3 -23 17 -70 30 -125 36 -255 102 -322 163 -31 29 -60 60 -63 70 -4
13 14 38 63 88 164 169 229 343 187 503 -18 70 -63 162 -75 155 -4 -3 -10 4
-13 15 -5 21 -37 28 -37 8 0 -6 -3 -8 -6 -5 -4 4 -1 13 6 22 10 13 9 15 -9 15
-12 0 -19 5 -16 10 3 6 4 10 1 10 -3 0 -8 -5 -11 -10z"/>
<path d="M717 1993 c-2 -4 -3 -16 -2 -26 2 -10 -1 -14 -7 -11 -6 4 -8 2 -5 -3
4 -6 -1 -17 -10 -24 -15 -12 -16 -12 -8 1 5 8 11 24 12 35 3 16 -1 15 -28 -10
-18 -17 -66 -71 -108 -121 -176 -211 -261 -424 -261 -646 1 -210 47 -336 164
-454 156 -157 376 -214 771 -200 428 14 696 89 955 267 85 58 225 178 217 186
-2 2 -54 -28 -115 -67 -199 -126 -387 -212 -546 -250 -87 -21 -256 -28 -256
-10 0 6 9 10 19 10 50 0 265 64 346 103 94 46 201 121 222 156 12 18 9 18 -43
-5 -97 -43 -246 -81 -289 -75 -5 1 25 15 68 31 164 61 377 175 377 202 0 5
-17 0 -37 -11 -126 -63 -469 -168 -649 -197 -212 -34 -505 -20 -694 33 -175
49 -300 155 -300 253 0 11 -4 20 -9 20 -4 0 -2 34 5 76 14 80 76 219 130 290
16 20 29 46 30 58 2 11 0 15 -3 8 -4 -12 -61 -41 -90 -48 -28 -5 0 113 54 224
20 43 37 83 36 89 0 7 2 11 6 9 3 -2 23 18 43 45 30 39 35 49 23 59 -7 6 -15
7 -18 3z"/>
<path d="M1248 1855 c-27 -18 -46 -34 -43 -37 3 -2 -1 -5 -8 -5 -13 0 -344
-220 -437 -290 l-44 -34 69 6 c39 3 79 8 91 10 12 3 23 2 26 0 3 -3 -23 -121
-58 -263 -34 -141 -61 -258 -59 -260 6 -6 328 -32 334 -27 5 6 181 929 177
931 0 0 -22 -14 -48 -31z"/>
<path d="M1735 1849 c-4 -6 -5 -12 -2 -15 2 -3 7 2 10 11 7 17 1 20 -8 4z"/>
</g>
</svg>
